<svg xmlns="http://www.w3.org/2000/svg" viewBox="0 0 100 100" width="512" height="512">
  <rect width="100" height="100" rx="18" fill="#1e4a28"/>
  <g transform="translate(12, 10) scale(3.2)" stroke="#d4a017" stroke-width="1.6" stroke-linecap="round" stroke-linejoin="round" fill="none">
    <path d="M3 4h9l1 7"/>
    <path d="M4 11V4"/>
    <path d="M8 10V4"/>
    <path d="M18 17c0 1.1-.9 2-2 2a2 2 0 0 1-2-2c0-1.1.9-2 2-2s2 .9 2 2z"/>
    <path d="M7 17c0 2.2-1.8 4-4 4a4 4 0 0 1-4-4c0-2.2 1.8-4 4-4s4 1.8 4 4z"/>
    <path d="M13 11h1a4 4 0 0 1 4 4"/>
    <path d="M4 11H2a1 1 0 0 0-1 1v2h6.5"/>
  </g>
</svg>
